<?xml version="1.0" encoding="UTF-8"?><svg id="Layer_1" xmlns="http://www.w3.org/2000/svg" viewBox="0 0 156.38 39.2"><defs><style>.cls-1{fill:#004489;}.cls-2{fill:#099;}</style></defs><path class="cls-1" d="m35.21,7.65l-5.75,5.75c-1.96-3.16-5.42-5.27-9.22-5.27-6.35,0-10.61,5.21-10.61,11.47,0,1.63.27,3.11.78,4.42-2.91-2.64-4.72-6.3-4.72-10.41C5.69,6.51,11.73.81,20.51.81c6.26,0,11.63,2.78,14.7,6.85Z"/><polygon class="cls-2" points="19.3 24.89 30.58 24.89 30.58 36.18 36.89 29.86 36.89 18.58 25.61 18.58 19.3 24.89"/><path class="cls-1" d="m25.3,29.64c-1.99,1.12-4.2,1.75-6.48,1.75C9.7,31.39,2.34,23.95,1.7,15.37c-.29,1.37-.43,2.75-.43,4.12,0,10.74,7.08,18.91,17.81,18.91,2.19,0,4.28-.37,6.23-1.03v-7.72Z"/><polygon class="cls-1" points="51.77 16.39 61.89 16.39 61.89 13.83 54.69 13.83 54.69 1.51 51.77 1.51 51.77 16.39"/><path class="cls-1" d="m77.09,8.99c0,2.82-2.05,4.91-4.81,4.91s-4.89-2.12-4.89-4.91,2.07-4.95,4.89-4.95,4.81,2.12,4.81,4.95m2.99,0c0-4.4-3.28-7.66-7.79-7.66s-7.88,3.34-7.88,7.66,3.32,7.6,7.88,7.6,7.79-3.24,7.79-7.6"/><polygon class="cls-1" points="96.33 16.56 97.98 16.56 97.98 1.51 95.1 1.51 95.1 11.29 86.26 1.36 84.6 1.36 84.6 16.39 87.46 16.39 87.46 6.61 96.33 16.56"/><path class="cls-1" d="m114,8.99c0,2.9-1.86,4.83-4.97,4.83h-2.69V4.1h2.69c3.11,0,4.97,1.95,4.97,4.89m2.96-.04c0-4.47-3.11-7.43-7.81-7.43h-5.74v14.88h5.74c4.7,0,7.81-2.98,7.81-7.45"/><path class="cls-1" d="m133.31,8.99c0,2.82-2.05,4.91-4.81,4.91s-4.89-2.12-4.89-4.91,2.07-4.95,4.89-4.95,4.81,2.12,4.81,4.95m2.99,0c0-4.4-3.28-7.66-7.79-7.66s-7.88,3.34-7.88,7.66,3.32,7.6,7.88,7.6,7.79-3.24,7.79-7.6"/><polygon class="cls-1" points="152.29 16.56 153.94 16.56 153.94 1.51 151.06 1.51 151.06 11.29 142.21 1.36 140.56 1.36 140.56 16.39 143.42 16.39 143.42 6.61 152.29 16.56"/><path class="cls-1" d="m75.32,22.76h-1.93l-6.52,14.88h3.09l1.19-2.88h6.37l1.19,2.88h3.09l-6.48-14.88Zm-3.24,9.53l2.26-5.38,2.24,5.38h-4.51Z"/><polygon class="cls-1" points="89.06 25.35 93.99 25.35 93.99 22.76 81.19 22.76 81.19 25.35 86.14 25.35 86.14 37.65 89.06 37.65 89.06 25.35"/><polygon class="cls-1" points="112.04 37.65 116.64 22.76 113.74 22.76 112.34 28.1 110.92 33.46 109.29 28.29 107.47 22.76 105.52 22.76 103.72 28.29 102.18 33.52 100.91 28.12 99.49 22.76 96.4 22.76 100.97 37.65 103.17 37.65 106.45 27.21 109.84 37.65 112.04 37.65"/><rect class="cls-1" x="119.54" y="22.76" width="2.92" height="14.88"/><path class="cls-1" d="m137.96,34.14c-.4.26-1.56.99-3.47.99-3.11,0-5.11-1.96-5.11-4.94s2.02-4.92,5.11-4.92c1.94,0,3.13.79,3.47,1.04h0v-3.06c-.87-.38-2.06-.73-3.64-.73-4.79,0-7.97,3.34-7.97,7.69s3.15,7.67,7.97,7.67c1.61,0,2.78-.34,3.64-.71v-3.02Z"/><polygon class="cls-1" points="154.95 22.71 151.42 22.71 145 29.12 145 22.71 142.07 22.71 142.07 37.68 145 37.68 145 31.42 151.28 37.68 155.12 37.68 147.58 30.08 154.95 22.71"/><path class="cls-1" d="m57.78,31.83h3.69v2.83c-.7.34-1.64.58-2.77.58-2.83,0-5.13-2.04-5.13-5.03s2.19-4.94,5.15-4.94c1.79,0,2.93.56,3.46.88l1.91-1.91-.37-.29c-.55-.36-2.13-1.43-5.13-1.43-4.73,0-8.07,3.36-8.07,7.69s3.34,7.67,8.01,7.67c3.13,0,4.9-1.13,5.7-1.75v-6.79h-3.96l-2.49,2.49Z"/></svg>